<?xml version="1.0" encoding="UTF-8"?>
<svg id="a" data-name="Layer 2" xmlns="http://www.w3.org/2000/svg" viewBox="0 0 32 32">
  <defs>
    <style>
      .c {
        fill: #fdbf01;
      }

      .e {
        fill: #f26f06;
      }
    </style>
  </defs>
  <g id="b" data-name="Layer 1-2">
    <g>

      <path class="e" d="M1.38,17.12c.09-.17.27-.51.4-.67s.38-.2.35-.49c-.02-.15-.45-.49-.57-.66-.95-1.3-.81-2.53.06-3.8.14-.2.86-.9.88-1,.05-.17-.06-.33-.06-.5.02-.38.1-.98.23-1.33.52-1.45,2.7-2.1,4.09-2.21.12-1.05.88-3.06,1.84-3.56.74-.39,2.12-.27,2.92-.05.28.08.88.45,1.09.38.11-.04.31-.51.4-.64.45-.58,1.37-1.3,2.05-1.57.91-.36,1.24-.25,2.07.22s1.37,1.06,1.9,1.86c.4-.17.82-.34,1.25-.42.7-.13,1.7-.1,2.4.07,1.53.36,2.2,2.3,2.39,3.7,1.35.05,3.76.79,4.12,2.28.12.48,0,1.5.12,1.76.03.06.67.59.81.75,1.15,1.31,1.25,2.27.4,3.83-.12.23-.6.74-.6.89,0,.17.46.8.58,1.05.7,1.43.79,2.29-.22,3.58-.15.19-.91.82-.92.89-.01.05.07.36.06.51-.07,1.17-.28,2.12-1.3,2.78-.87.56-1.88.8-2.91.78-.15.9-.37,1.85-.87,2.62-.8,1.23-1.9,1.56-3.33,1.27-.56-.11-1.08-.44-1.63-.54-.84.87-2.02,2.25-3.32,2.32s-2.55-1.38-3.29-2.32c-.4.1-.75.34-1.14.46-1.21.39-2.73.32-3.6-.7-.76-.89-1.02-1.99-1.23-3.11-1.12,0-2.53-.33-3.4-1.06-.69-.58-.78-1.17-.87-2.04-.03-.25.06-.67-.03-.87-.07-.15-.8-.81-.99-1.08-.88-1.24-.83-2.06-.12-3.37h0ZM18.46,8.72c.49-1.03,1.24-1.91.41-2.98-.51-.66-1.24-1.03-2.09-.93-.27.03-.51.18-.78.19-.38.02-.64-.17-.97-.2-1.23-.12-2.76,1.04-2.41,2.35l1.4,3.23c.17.04.1-.04.13-.09.1-.16.17-.34.29-.48.72-.88,2.19-.9,2.9,0,.1.12.28.54.39.52.08-.02.52-1.29.62-1.5.02-.05.09-.06.1-.08v-.03ZM20.75,12.63c.34,0,.66-.03.99.08.29.1.52.47.76.41.19-.05.98-.5,1.18-.63,1.01-.65,1.66-1.45,1.32-2.72-.24-.91-.78-.82-1.28-1.31-.29-.29-.49-.84-.84-1.17-.92-.87-2.66-.72-3.39.3-.18.25-1.35,2.6-1.33,2.75.02.17.43-.07.56-.09.73-.1,1.37.19,1.79.79.38.55.34.96.24,1.6h0ZM13.51,10.3c.07-.1-.52-1.29-.62-1.48-.67-1.23-1.34-2.12-2.9-1.95-.55.06-1.19.43-1.51.89-.13.19-.22.56-.36.67-.16.13-.53.23-.77.4-1.07.78-1.11,2.41-.14,3.29.2.18.59.39.83.53.18.11,1.33.71,1.43.7.18-.02.5-.49.67-.58.18-.09.99-.22,1.02-.26,0-.36-.09-.67,0-1.04.2-.98,1.47-1.52,2.36-1.16h0ZM24.09,18.94s.06.16.21.21c1.72.6,3.22-.49,2.97-2.33-.03-.22-.18-.44-.19-.66,0-.24.12-.56.14-.84.12-1.83-1.34-3.21-3.12-2.48-.16.07-1.33.69-1.38.76-.09.14.1.6.1.81,0,.26-.14.68-.27.9-.12.18-.48.42-.51.6-.04.27.24.39.38.59.2.29.34.61.39.97.03.22-.05.56.04.74.07.14,1.03.6,1.24.73ZM6.19,12.71c-.73.13-1.56,1.04-1.66,1.77s.26,1.09.25,1.55c0,.25-.22.68-.25.98-.15,1.41,1.23,2.66,2.61,2.48.4-.05,1.86-.8,2.04-1.12.13-.23-.03-.6,0-.91.02-.26.15-.6.29-.81.16-.23.66-.48.48-.75-.22-.33-.61-.38-.75-.93-.08-.3.05-.98-.09-1.14-.04-.04-.81-.49-.93-.56-.6-.33-1.3-.69-2-.56h.01ZM15.76,14.85c-1.7.23-.88,3.13.75,2.18,1.06-.62.54-2.35-.75-2.18ZM24.08,19.53c-.17-.11-1.41-.8-1.49-.8-.17,0-.63.46-.95.53-.25.06-.78,0-.92.1-.09.06.04.77,0,.99-.15,1.13-1.33,1.73-2.37,1.47.59.91,1.35,3.26,2.56,3.43.65.09,1.35-.04,1.87-.45.41-.33.45-.76.78-1.03.51-.42,1-.21,1.48-.98.79-1.26.18-2.54-.96-3.27h0ZM9.74,18.94c-.12-.07-.15-.11-.3-.06-.17.06-1.27.82-1.48.98-.9.67-1.35,1.32-1.17,2.52.06.39.59.94.91,1.17.16.11.41.17.55.29.15.14.2.41.33.58.27.37.81.75,1.24.89,1.81.59,2.51-.76,3.22-2.12.24-.46.42-.97.68-1.43-1.52.53-2.86-.6-2.59-2.2-.52-.05-.88-.26-1.3-.53-.04-.03-.05-.09-.07-.1h-.02ZM17.84,21.7c-.17-.04-.1.04-.13.09-.18.3-.25.59-.54.81-.74.57-1.9.53-2.55-.16-.15-.16-.22-.36-.32-.51-.05-.07-.07-.06-.13,0-.32.72-.74,1.47-1.04,2.19-.13.32-.36.85-.38,1.18-.07,1.21,1.26,2.21,2.41,2.02.29-.05.6-.31.86-.31.21,0,.49.23.75.28.99.2,2.28-.52,2.43-1.56.12-.84-.29-1.75-.62-2.52-.22-.51-.48-1.01-.72-1.51h-.02Z"/>
      <path class="c" d="M6.19,12.71c.7-.13,1.4.23,2,.56.12.07.89.52.93.56.14.16.02.84.09,1.14.14.55.53.61.75.93.18.27-.32.52-.48.75-.15.21-.27.55-.29.81-.02.31.14.68,0,.91-.19.32-1.64,1.07-2.04,1.12-1.38.17-2.76-1.07-2.61-2.48.03-.3.25-.73.25-.98,0-.46-.35-.85-.25-1.55s.93-1.64,1.66-1.77h-.01Z"/>
      <path class="c" d="M24.08,19.53c1.14.73,1.75,2.01.96,3.27-.48.77-.97.56-1.48.98-.33.27-.36.7-.78,1.03-.51.41-1.22.54-1.87.45-1.21-.17-1.97-2.52-2.56-3.43,1.05.26,2.23-.35,2.37-1.47.03-.23-.1-.93,0-.99.14-.1.67-.04.92-.1.32-.08.78-.53.95-.53.08,0,1.32.7,1.49.8h0Z"/>
      <path class="c" d="M13.51,10.3c-.9-.36-2.16.18-2.36,1.16-.08.38.02.68,0,1.04-.03.04-.84.17-1.02.26-.17.09-.49.56-.67.58-.1.01-1.25-.6-1.43-.7-.24-.14-.63-.35-.83-.53-.97-.88-.93-2.51.14-3.29.23-.17.61-.27.77-.4.14-.11.23-.48.36-.67.31-.46.96-.83,1.51-.89,1.56-.17,2.23.72,2.9,1.95.11.19.69,1.38.62,1.48h0Z"/>
      <path class="c" d="M9.74,18.94s.03.08.07.1c.43.26.79.47,1.3.53-.27,1.59,1.07,2.73,2.59,2.2-.25.46-.43.96-.68,1.43-.71,1.36-1.41,2.71-3.22,2.12-.44-.14-.98-.52-1.24-.89-.12-.17-.18-.44-.33-.58-.13-.12-.39-.18-.55-.29-.31-.22-.84-.78-.91-1.17-.19-1.19.27-1.85,1.17-2.52.21-.16,1.32-.92,1.48-.98.14-.05.18-.02.3.06h.02Z"/>
      <path class="c" d="M20.75,12.63c.1-.64.14-1.05-.24-1.6-.42-.6-1.06-.89-1.79-.79-.13.02-.53.26-.56.09-.02-.15,1.15-2.5,1.33-2.75.73-1.02,2.47-1.17,3.39-.3.35.33.55.88.84,1.17.49.49,1.03.41,1.28,1.31.34,1.27-.31,2.08-1.32,2.72-.2.13-1,.59-1.18.63-.24.06-.47-.31-.76-.41-.32-.11-.65-.08-.99-.08h0Z"/>
      <path class="c" d="M18.46,8.72s-.07.03-.1.08c-.1.21-.54,1.48-.62,1.5-.1.02-.29-.4-.39-.52-.72-.89-2.18-.88-2.9,0-.12.15-.19.32-.29.48-.03.06.03.13-.13.09l-1.4-3.23c-.35-1.3,1.17-2.47,2.41-2.35.33.03.59.22.97.2.27-.01.51-.16.78-.19.85-.1,1.58.27,2.09.93.82,1.08.07,1.96-.41,2.98v.03Z"/>
      <path class="c" d="M24.09,18.94c-.21-.13-1.17-.6-1.24-.73-.08-.17,0-.52-.04-.74-.05-.36-.19-.67-.39-.97-.14-.2-.42-.32-.38-.59.03-.18.39-.41.51-.6.14-.22.28-.64.27-.9,0-.21-.19-.67-.1-.81.04-.07,1.21-.7,1.38-.76,1.79-.72,3.24.65,3.12,2.48-.02.28-.14.6-.14.84,0,.22.16.44.19.66.25,1.84-1.25,2.93-2.97,2.33-.15-.05-.16-.18-.21-.21Z"/>
      <path class="c" d="M17.84,21.7c.24.5.51,1,.72,1.51.33.77.74,1.68.62,2.52-.15,1.04-1.44,1.77-2.43,1.56-.26-.05-.54-.28-.75-.28-.26,0-.57.26-.86.31-1.15.19-2.48-.81-2.41-2.02.02-.33.24-.86.38-1.18.3-.72.72-1.47,1.04-2.19.06-.05.08-.07.13,0,.1.15.18.35.32.51.65.7,1.81.74,2.55.16.29-.23.36-.52.54-.81.03-.06-.03-.13.13-.09h.02Z"/>
      <path class="c" d="M15.76,14.85c1.29-.17,1.81,1.56.75,2.18-1.63.95-2.45-1.95-.75-2.18Z"/>
    </g>
  </g>
</svg>